# xmcd
#
# Track frame offsets: 
#        150
#        15324
#        38759
#        59583
#        73564
#        92181
#        114941
#        143763
#        161121
#        179872
#        196964
#        225464
#        240198
#        263111
#        281429
#        301792
#
# Disc length: 4259 seconds
#
# Revision: 4
# Processed by: cddbd v1.5.2PL0 Copyright (c) Steve Scherf et al.
# Submitted via: ExactAudioCopy v1.0b1
#
DISCID=d210a110
DTITLE=Various Artist - Türkce Pop 120 - CD5
DYEAR=2012
DGENRE=Türkce Pop
TTITLE0=MFÖ - Sari Laleler
TTITLE1=Ajda Pekkan - Vitrin
TTITLE2=Zeynep Casalini - Dokunma Bana
TTITLE3=Kenan Dogulu - Unutarak Kurtuluyorum
TTITLE4=Sezen Aksu - Tebdil-I Mekan
TTITLE5=Ferhat Göcer - Yastayim
TTITLE6=Hande Yener - Insanlar Cok
TTITLE7=Yalin - Kücücügum
TTITLE8=Zeynep Dizdar - Zehir Gibi
TTITLE9=Tarkan - Gulumse Kaderine
TTITLE10=Gökhan Özen - Sana Yine Muhtacim
TTITLE11=Funda  Arar - Gecse De Yillar
TTITLE12=Levent Yüksel - Beni Unutma
TTITLE13=Yesim Salkim - Erguvan
TTITLE14=Yüksek Sadakat - Belki Üstümüzden Bir Kus Gecer
TTITLE15=Nil Karaibrahimgil - Gitme Yoksa
EXTD=YEAR: 2006
EXTT0=
EXTT1=
EXTT2=
EXTT3=
EXTT4=
EXTT5=
EXTT6=
EXTT7=
EXTT8=
EXTT9=
EXTT10=
EXTT11=
EXTT12=
EXTT13=
EXTT14=
EXTT15=
PLAYORDER=
